<svg width="19" height="17" viewBox="0 0 19 17" fill="none" xmlns="http://www.w3.org/2000/svg">
<path d="M9.49984 8.96374L12.8586 12.3225L11.739 13.442L10.2915 11.9952V16.4166H8.70817V11.9936L7.26066 13.442L6.14108 12.3225L9.49984 8.96374ZM9.49984 0.583313C12.3446 0.583313 14.6887 2.72684 15.0052 5.48686C16.8511 5.99162 18.2082 7.68108 18.2082 9.68748C18.2082 11.9586 16.4694 13.8236 14.2503 14.0239L14.2505 12.4301C15.593 12.2378 16.6248 11.0831 16.6248 9.68748C16.6248 8.15719 15.3843 6.91665 13.854 6.91665C13.6887 6.91665 13.5268 6.93113 13.3701 6.9594C13.4278 6.69039 13.4582 6.41123 13.4582 6.12498C13.4582 3.93886 11.6859 2.16665 9.49984 2.16665C7.31371 2.16665 5.5415 3.93886 5.5415 6.12498C5.5415 6.41123 5.57189 6.69039 5.63021 6.95884C5.47287 6.93113 5.31096 6.91665 5.14567 6.91665C3.61538 6.91665 2.37484 8.15719 2.37484 9.68748C2.37484 11.0336 3.33466 12.1554 4.60723 12.4061L4.74988 12.4303L4.75015 14.0239C2.53076 13.8241 0.791504 11.9589 0.791504 9.68748C0.791504 7.68108 2.14861 5.99162 3.99497 5.48698C4.31095 2.72684 6.65507 0.583313 9.49984 0.583313Z" fill="white"/>
</svg>
