<svg width="164" height="131" viewBox="0 0 164 131" fill="none" xmlns="http://www.w3.org/2000/svg">
<g clip-path="url(#clip0_457_305)">
<path d="M29.9015 15.4509C29.5934 15.4853 29.2964 15.5878 29.0316 15.7511C28.7668 15.9143 28.5405 16.1344 28.3688 16.3958C28.197 16.6572 28.0839 16.9536 28.0375 17.2641C27.991 17.5746 28.0124 17.8916 28.1 18.1928L21.9688 22.6307L25.6234 24.0553L30.8854 19.6226C31.3753 19.44 31.7819 19.0817 32.0284 18.6157C32.2749 18.1497 32.344 17.6083 32.2228 17.0941C32.1015 16.5798 31.7982 16.1286 31.3704 15.8257C30.9425 15.5229 30.4199 15.3895 29.9015 15.4509Z" fill="#FFB8B8"/>
<path d="M29.3314 22.1354L21.7262 29.8865C20.684 30.9419 19.3096 31.5941 17.842 31.7298L8.44447 32.5983C8.09996 32.6316 7.75235 32.5946 7.42219 32.4895C7.09202 32.3844 6.78601 32.2133 6.52222 31.9864C6.15728 31.677 5.88591 31.2696 5.73928 30.811C5.59265 30.3524 5.5767 29.8612 5.69328 29.3939C5.80986 28.9265 6.05422 28.502 6.39831 28.1689C6.74239 27.8359 7.17224 27.608 7.63847 27.5113L17.239 25.4407L25.9797 18.9144C26.1012 18.8452 26.2385 18.8093 26.3779 18.8103C26.5173 18.8114 26.6541 18.8493 26.7745 18.9204L29.1515 20.8928C29.2945 20.9722 29.4094 21.0949 29.4801 21.2438C29.5507 21.3927 29.5736 21.5602 29.5454 21.7229C29.5177 21.8795 29.4429 22.0235 29.3314 22.1354Z" fill="#2F2E41"/>
<path d="M120.512 26.301C120.569 25.7719 120.463 25.2379 120.21 24.7717C119.957 24.3055 119.568 23.9297 119.096 23.6953L71.7658 0.263555C71.4648 0.114401 71.1377 0.0267556 70.8033 0.00562452C70.4689 -0.0155065 70.1336 0.0302893 69.8167 0.140398C69.4997 0.250507 69.2073 0.422773 68.9561 0.647358C68.7049 0.871944 68.4998 1.14445 68.3525 1.44932L68.3517 1.45112L50.5998 38.2409C50.3036 38.8571 50.2606 39.5672 50.4804 40.2154C50.7001 40.8637 51.1647 41.3972 51.7723 41.6991L99.1023 65.1308C99.7107 65.4309 100.412 65.4744 101.052 65.2518C101.692 65.0292 102.218 64.5586 102.516 63.9432L120.268 27.1535C120.398 26.8859 120.481 26.5974 120.512 26.301Z" fill="#F2F2F2"/>
<path d="M92.7845 107.956H31.3713C30.5982 107.955 29.8569 107.644 29.3102 107.09C28.7635 106.536 28.4559 105.785 28.4551 105.002V20.5539C28.4559 19.7708 28.7635 19.0199 29.3102 18.4661C29.8569 17.9124 30.5982 17.6009 31.3713 17.6H92.7845C93.5577 17.6009 94.2989 17.9124 94.8457 18.4661C95.3924 19.0199 95.6999 19.7708 95.7008 20.5539V105.002C95.6999 105.785 95.3924 106.536 94.8457 107.09C94.2989 107.644 93.5577 107.955 92.7845 107.956Z" fill="white"/>
<path d="M47.6605 42.7816C49.8734 42.7816 51.6672 40.9646 51.6672 38.7231C51.6672 36.4817 49.8734 34.6647 47.6605 34.6647C45.4477 34.6647 43.6538 36.4817 43.6538 38.7231C43.6538 40.9646 45.4477 42.7816 47.6605 42.7816Z" fill="#E6E6E6"/>
<path d="M41.5537 49.8155C42.1199 50.1414 42.7124 50.418 43.3249 50.6422L43.4331 50.6802C44.6667 51.1189 45.965 51.3423 47.2725 51.3407C47.5355 51.3407 47.7889 51.3314 48.0257 51.3133C48.6019 51.2775 49.1745 51.1975 49.7387 51.074C50.0483 51.0055 50.357 50.9235 50.6556 50.8307C50.7279 50.8091 50.7947 50.7879 50.868 50.7647C52.0851 50.365 53.2287 49.7647 54.253 48.988C54.1708 48.8304 54.0807 48.6772 53.9833 48.5289C53.4566 47.7139 52.7376 47.0447 51.8914 46.582C51.0451 46.1193 50.0983 45.8776 49.1366 45.8789H47.0278C45.9155 45.8791 44.8267 46.2031 43.8911 46.8124C42.9555 47.4216 42.2124 48.2905 41.7505 49.3153C41.6766 49.4786 41.611 49.6455 41.5537 49.8155Z" fill="#E6E6E6"/>
<path d="M49.0199 50.9729C48.8853 50.983 48.7558 51.029 48.6445 51.1063C49.2099 51.0707 49.7718 50.9917 50.3254 50.87L49.0199 50.9729Z" fill="#2F2E41"/>
<path d="M47.9035 27.7097C45.3229 27.71 42.8147 28.5731 40.768 30.1651C38.7213 31.7571 37.2506 33.9889 36.5843 36.5142C35.918 39.0395 36.0934 41.7169 37.0831 44.1309C38.0728 46.5449 39.8215 48.5604 42.0579 49.8647C42.6515 50.2129 43.2747 50.5067 43.9199 50.7426L44.0296 50.7811C45.2743 51.2237 46.5843 51.4491 47.9035 51.4475C48.1586 51.4475 48.4138 51.439 48.6647 51.4197C49.2456 51.3836 49.823 51.3029 50.3918 51.1784C50.7103 51.1079 51.0224 51.0246 51.3176 50.9327C51.3893 50.9114 51.4567 50.89 51.5305 50.8665C54.1828 49.9915 56.4398 48.1869 57.8961 45.7771C59.3524 43.3673 59.9123 40.5104 59.4752 37.7199C59.0381 34.9294 57.6327 32.3884 55.5116 30.5535C53.3905 28.7186 50.6928 27.7103 47.9035 27.7097ZM54.7022 48.4699C53.6913 49.26 52.5535 49.8677 51.3387 50.2663C51.2733 50.2876 51.2058 50.309 51.1383 50.3304C50.8579 50.4179 50.5626 50.4948 50.259 50.561C49.7208 50.68 49.1745 50.7571 48.6247 50.7917C48.3864 50.8088 48.1438 50.8174 47.9035 50.8174C46.6548 50.8181 45.4149 50.6051 44.2363 50.1872L44.133 50.1509C43.4912 49.9173 42.8726 49.6226 42.2856 49.2709C40.2413 48.0518 38.6369 46.2006 37.7082 43.9894C36.7795 41.7783 36.5755 39.3237 37.1261 36.9863C37.6768 34.649 38.953 32.5522 40.7673 31.004C42.5816 29.4558 44.8384 28.538 47.2059 28.3852C49.5734 28.2325 51.9268 28.853 53.9204 30.1555C55.9139 31.458 57.4425 33.3739 58.2814 35.6216C59.1203 37.8693 59.2254 40.3302 58.5811 42.6429C57.9369 44.9555 56.5773 46.9979 54.7022 48.4699Z" fill="#CCCCCC"/>
<path d="M92.7845 107.956H31.3713C30.5982 107.955 29.8569 107.644 29.3102 107.09C28.7635 106.536 28.4559 105.785 28.4551 105.002V20.5539C28.4559 19.7708 28.7635 19.0199 29.3102 18.4661C29.8569 17.9124 30.5982 17.6009 31.3713 17.6H92.7845C93.5577 17.6009 94.2989 17.9124 94.8457 18.4661C95.3924 19.0199 95.6999 19.7708 95.7008 20.5539V105.002C95.6999 105.785 95.3924 106.536 94.8457 107.09C94.2989 107.644 93.5577 107.955 92.7845 107.956ZM31.3713 17.9475C30.6891 17.9483 30.0351 18.2231 29.5527 18.7118C29.0703 19.2004 28.7989 19.8629 28.7982 20.5539V105.002C28.7989 105.693 29.0703 106.356 29.5527 106.844C30.0351 107.333 30.6891 107.608 31.3713 107.608H92.7845C93.4667 107.608 94.1208 107.333 94.6032 106.844C95.0856 106.356 95.3569 105.693 95.3577 105.002V20.5539C95.3569 19.8629 95.0856 19.2004 94.6032 18.7118C94.1208 18.2231 93.4667 17.9483 92.7845 17.9475L31.3713 17.9475Z" fill="#CCCCCC"/>
<path d="M80.8957 39.5329H63.5178C63.1532 39.5329 62.8036 39.3862 62.5457 39.125C62.2879 38.8639 62.1431 38.5097 62.1431 38.1403C62.1431 37.771 62.2879 37.4168 62.5457 37.1557C62.8036 36.8945 63.1532 36.7478 63.5178 36.7478H80.8957C81.2603 36.7478 81.61 36.8945 81.8678 37.1557C82.1256 37.4168 82.2704 37.771 82.2704 38.1403C82.2704 38.5097 82.1256 38.8639 81.8678 39.125C81.61 39.3862 81.2603 39.5329 80.8957 39.5329Z" fill="#E6E6E6"/>
<path d="M86.5666 44.2327H63.5178C63.1532 44.2327 62.8036 44.086 62.5457 43.8249C62.2879 43.5637 62.1431 43.2095 62.1431 42.8402C62.1431 42.4709 62.2879 42.1167 62.5457 41.8555C62.8036 41.5943 63.1532 41.4476 63.5178 41.4476H86.5666C86.9312 41.4476 87.2809 41.5943 87.5388 41.8555C87.7966 42.1167 87.9414 42.4709 87.9414 42.8402C87.9414 43.2095 87.7966 43.5637 87.5388 43.8249C87.2809 44.086 86.9312 44.2327 86.5666 44.2327Z" fill="#E6E6E6"/>
<path d="M80.8708 62.2585H37.5896C37.225 62.2585 36.8753 62.1118 36.6175 61.8506C36.3597 61.5895 36.2148 61.2353 36.2148 60.8659C36.2148 60.4966 36.3597 60.1424 36.6175 59.8813C36.8753 59.6201 37.225 59.4734 37.5896 59.4734H80.8708C81.2354 59.4734 81.585 59.6201 81.8429 59.8813C82.1007 60.1424 82.2455 60.4966 82.2455 60.8659C82.2455 61.2353 82.1007 61.5895 81.8429 61.8506C81.585 62.1118 81.2354 62.2585 80.8708 62.2585Z" fill="#E6E6E6"/>
<path d="M86.5417 66.9584H37.5896C37.225 66.9584 36.8753 66.8117 36.6175 66.5506C36.3597 66.2894 36.2148 65.9352 36.2148 65.5659C36.2148 65.1966 36.3597 64.8424 36.6175 64.5812C36.8753 64.3201 37.225 64.1733 37.5896 64.1733H86.5417C86.9063 64.1733 87.256 64.3201 87.5138 64.5812C87.7717 64.8424 87.9165 65.1966 87.9165 65.5659C87.9165 65.9352 87.7717 66.2894 87.5138 66.5506C87.256 66.8117 86.9063 66.9584 86.5417 66.9584Z" fill="#E6E6E6"/>
<path d="M80.8708 77.7604H37.5896C37.225 77.7604 36.8753 77.6137 36.6175 77.3526C36.3597 77.0914 36.2148 76.7372 36.2148 76.3679C36.2148 75.9986 36.3597 75.6444 36.6175 75.3832C36.8753 75.1221 37.225 74.9753 37.5896 74.9753H80.8708C81.2354 74.9753 81.585 75.1221 81.8429 75.3832C82.1007 75.6444 82.2455 75.9986 82.2455 76.3679C82.2455 76.7372 82.1007 77.0914 81.8429 77.3526C81.585 77.6137 81.2354 77.7604 80.8708 77.7604Z" fill="#E6E6E6"/>
<path d="M86.5417 82.4603H37.5896C37.225 82.4603 36.8753 82.3136 36.6175 82.0524C36.3597 81.7912 36.2148 81.437 36.2148 81.0677C36.2148 80.6984 36.3597 80.3442 36.6175 80.083C36.8753 79.8219 37.225 79.6752 37.5896 79.6752H86.5417C86.9063 79.6752 87.256 79.8219 87.5138 80.083C87.7717 80.3442 87.9165 80.6984 87.9165 81.0677C87.9165 81.437 87.7717 81.7912 87.5138 82.0524C87.256 82.3136 86.9063 82.4603 86.5417 82.4603Z" fill="#E6E6E6"/>
<path d="M80.8708 93.2623H37.5896C37.225 93.2623 36.8753 93.1155 36.6175 92.8544C36.3597 92.5932 36.2148 92.239 36.2148 91.8697C36.2148 91.5004 36.3597 91.1462 36.6175 90.885C36.8753 90.6239 37.225 90.4772 37.5896 90.4772H80.8708C81.2354 90.4772 81.585 90.6239 81.8429 90.885C82.1007 91.1462 82.2455 91.5004 82.2455 91.8697C82.2455 92.239 82.1007 92.5932 81.8429 92.8544C81.585 93.1155 81.2354 93.2623 80.8708 93.2623Z" fill="#E6E6E6"/>
<path d="M86.5417 97.9621H37.5896C37.225 97.9621 36.8753 97.8154 36.6175 97.5542C36.3597 97.2931 36.2148 96.9389 36.2148 96.5695C36.2148 96.2002 36.3597 95.846 36.6175 95.5849C36.8753 95.3237 37.225 95.177 37.5896 95.177H86.5417C86.9061 95.1775 87.2553 95.3244 87.5127 95.5855C87.7702 95.8466 87.9148 96.2005 87.9148 96.5695C87.9148 96.9386 87.7702 97.2925 87.5127 97.5536C87.2553 97.8147 86.9061 97.9616 86.5417 97.9621Z" fill="#E6E6E6"/>
<path d="M118.404 50.4382C118.46 49.9091 118.355 49.3751 118.101 48.9089C117.848 48.4427 117.459 48.0669 116.987 47.8325L69.6569 24.4008C69.3559 24.2516 69.0289 24.164 68.6944 24.1428C68.36 24.1217 68.0248 24.1675 67.7078 24.2776C67.3909 24.3877 67.0984 24.56 66.8472 24.7846C66.596 25.0091 66.3909 25.2817 66.2436 25.5865L66.2428 25.5883L48.4909 62.3781C48.1947 62.9943 48.1517 63.7044 48.3715 64.3526C48.5913 65.0009 49.0558 65.5344 49.6634 65.8363L96.9934 89.268C97.6018 89.5681 98.3028 89.6116 98.9428 89.389C99.5828 89.1664 100.11 88.6958 100.408 88.0804L118.159 51.2907C118.289 51.0231 118.372 50.7346 118.404 50.4382Z" fill="white"/>
<path d="M118.404 50.4382C118.46 49.9091 118.355 49.3751 118.101 48.9089C117.848 48.4427 117.459 48.0669 116.987 47.8325L69.6569 24.4008C69.3559 24.2516 69.0289 24.164 68.6944 24.1428C68.36 24.1217 68.0248 24.1675 67.7078 24.2776C67.3909 24.3877 67.0984 24.56 66.8472 24.7846C66.596 25.0091 66.3909 25.2817 66.2436 25.5865L66.2428 25.5883L48.4909 62.3781C48.1947 62.9943 48.1517 63.7044 48.3715 64.3526C48.5913 65.0009 49.0558 65.5344 49.6634 65.8363L96.9934 89.268C97.6018 89.5681 98.3028 89.6116 98.9428 89.389C99.5828 89.1664 100.11 88.6958 100.408 88.0804L118.159 51.2907C118.289 51.0231 118.372 50.7346 118.404 50.4382ZM100.138 87.9469C99.8749 88.4899 99.4101 88.9052 98.8454 89.1017C98.2807 89.2981 97.6621 89.2596 97.1253 88.9947L49.7952 65.563C49.2591 65.2968 48.8491 64.826 48.6552 64.254C48.4612 63.6819 48.4992 63.0553 48.7607 62.5116L66.5126 25.7219C66.7754 25.1788 67.2402 24.7635 67.8049 24.5671C68.3697 24.3707 68.9882 24.4091 69.525 24.674L116.855 48.1058C117.391 48.372 117.801 48.8428 117.995 49.4148C118.189 49.9868 118.151 50.6134 117.89 51.1571L100.138 87.9469Z" fill="#3F3D56"/>
<path d="M113.241 52.111L100.846 77.8002C100.763 77.9717 100.616 78.1029 100.438 78.1649C100.26 78.227 100.065 78.2148 99.8955 78.131L56.8424 56.8167C56.8116 56.8018 56.7822 56.7842 56.7544 56.7642C56.6132 56.6669 56.5114 56.5213 56.4676 56.3541C56.4238 56.1869 56.441 56.0093 56.516 55.8539L68.9115 30.1647C68.9525 30.0798 69.0095 30.0039 69.0794 29.9413C69.1493 29.8787 69.2307 29.8307 69.3189 29.8C69.4072 29.7692 69.5005 29.7564 69.5936 29.7622C69.6868 29.768 69.7778 29.7924 69.8617 29.8338L112.915 51.1482C113.084 51.2319 113.214 51.3804 113.275 51.5608C113.336 51.7413 113.324 51.9391 113.241 52.1106L113.241 52.111Z" fill="#E6E6E6"/>
<path d="M75.444 50.8064C78.8875 50.8064 81.679 47.9788 81.679 44.4908C81.679 41.0029 78.8875 38.1753 75.444 38.1753C72.0005 38.1753 69.209 41.0029 69.209 44.4908C69.209 47.9788 72.0005 50.8064 75.444 50.8064Z" fill="#FFA600"/>
<path d="M84.5732 70.6729L57.0928 57.0682C57.0582 57.0516 57.0252 57.0318 56.9941 57.0091L80.9942 40.6401C81.1421 40.5373 81.3142 40.4762 81.493 40.4628C81.6718 40.4495 81.8509 40.4845 82.012 40.5643C82.1731 40.644 82.3104 40.7657 82.4099 40.9168C82.5094 41.0679 82.5675 41.243 82.5783 41.4243L83.9169 61.0454L83.9815 61.9846L84.5732 70.6729Z" fill="#3F3D56"/>
<path opacity="0.2" d="M84.5729 70.673L75.1904 66.028L83.0661 61.5316L83.6332 61.2078L83.9166 61.0457L83.9811 61.9847L84.5729 70.673Z" fill="black"/>
<path d="M99.8737 78.2479L76.1055 66.481L83.9811 61.9846L84.5481 61.6605L94.8111 55.8007C95.4839 55.4167 96.4479 55.8493 96.6665 56.584C96.6809 56.6339 96.6922 56.6846 96.7002 56.7359L99.8737 78.2479Z" fill="#3F3D56"/>
<path d="M26.5377 80.4901L29.1229 80.4899L30.353 70.389L26.5371 70.3893L26.5377 80.4901Z" fill="#FFB8B8"/>
<path d="M25.8784 79.6352L30.9698 79.635C31.3959 79.635 31.8181 79.72 32.2117 79.8852C32.6054 80.0503 32.9631 80.2924 33.2644 80.5976C33.5657 80.9028 33.8047 81.2651 33.9678 81.6638C34.1308 82.0626 34.2147 82.49 34.2147 82.9216V83.0284L25.8786 83.0287L25.8784 79.6352Z" fill="#2F2E41"/>
<path d="M6.44238 78.8228L9.12097 79.3533L12.4166 69.1409L8.46345 68.3577L6.44238 78.8228Z" fill="#FFB8B8"/>
<path d="M5.9304 77.8015L11.2054 78.8467L11.2056 78.8467C11.6471 78.9342 12.0672 79.1089 12.442 79.3609C12.8168 79.6128 13.139 79.937 13.39 80.3151C13.6411 80.6931 13.8162 81.1176 13.9054 81.5642C13.9945 82.0108 13.9959 82.4708 13.9096 82.918L13.8882 83.0286L5.25146 81.3173L5.9304 77.8015Z" fill="#2F2E41"/>
<path d="M30.2989 45.6468C30.2114 45.3456 30.0597 45.0674 29.8546 44.832C29.6494 44.5966 29.3958 44.4095 29.1116 44.2841C28.8274 44.1587 28.5195 44.0979 28.2096 44.1061C27.8997 44.1142 27.5953 44.1911 27.3179 44.3313L21.9291 38.9956L21.1855 42.89L26.4169 47.3598C26.6803 47.8162 27.0998 48.1589 27.596 48.323C28.0922 48.487 28.6305 48.461 29.109 48.2499C29.5875 48.0387 29.973 47.6571 30.1923 47.1773C30.4116 46.6976 30.4495 46.153 30.2989 45.6468Z" fill="#FFB8B8"/>
<path d="M10.3059 18.1834C13.1664 18.1834 15.4853 15.8346 15.4853 12.9371C15.4853 10.0397 13.1664 7.6908 10.3059 7.6908C7.44536 7.6908 5.12646 10.0397 5.12646 12.9371C5.12646 15.8346 7.44536 18.1834 10.3059 18.1834Z" fill="#FFB8B8"/>
<path d="M9.21824 18.2637C9.49343 18.3857 10.057 16.1646 9.80453 15.7203C9.42912 15.0597 9.45131 15.0644 9.20209 14.6273C8.95287 14.1902 8.89711 13.5919 9.21984 13.2074C9.54257 12.8228 10.2894 12.8738 10.4367 13.356C10.342 12.4401 11.2363 11.7039 12.1223 11.497C13.0082 11.2901 13.9427 11.4185 14.8335 11.2344C15.8673 11.0207 16.9429 10.1429 16.5304 8.99142C16.4597 8.7997 16.3537 8.62328 16.2181 8.47149C15.7416 7.92873 15.0749 7.69698 14.4231 7.47289C13.0672 7.00671 11.6741 6.53467 10.243 6.58613C9.06394 6.64859 7.92839 7.05784 6.97534 7.76383C6.02229 8.46982 5.29309 9.4419 4.87697 10.5611C4.77835 10.8411 4.70195 11.1287 4.64849 11.421C4.15731 14.0962 5.69101 16.735 8.18203 17.7537L9.21824 18.2637Z" fill="#2F2E41"/>
<path d="M7.94652 47.0839C7.81443 47.003 7.70856 46.8848 7.64195 46.7437C7.57534 46.6027 7.55089 46.445 7.57162 46.29L5.23444 34.5629L2.86535 25.5627C2.60526 24.5765 2.68386 23.5301 3.08816 22.595C3.49246 21.66 4.1985 20.8919 5.09044 20.4168L6.65664 18.9158L10.0734 20.4068L11.6969 22.0789C12.8614 22.6533 13.8944 23.468 14.7295 24.4709C15.5645 25.4737 16.1832 26.6425 16.5457 27.9019L19.1497 36.9277L25.1634 45.9902C25.2639 46.1413 25.3108 46.3223 25.2967 46.5038C25.2825 46.6853 25.2081 46.8566 25.0855 46.9898C24.2489 47.9014 7.94652 47.0839 7.94652 47.0839Z" fill="#2F2E41"/>
<path d="M23.7019 46.2509L14.8343 40.0265C13.6257 39.1723 12.7507 37.9162 12.3613 36.4764L9.86874 27.2574C9.77595 26.9197 9.75093 26.5666 9.79516 26.2189C9.83939 25.8712 9.95198 25.5361 10.1263 25.2332C10.363 24.815 10.7113 24.4729 11.1313 24.2463C11.5513 24.0196 12.0259 23.9175 12.5006 23.9518C12.9753 23.9861 13.4308 24.1553 13.8149 24.44C14.1989 24.7247 14.4958 25.1134 14.6716 25.5613L18.3682 34.772L26.2446 42.3434C26.3332 42.4524 26.3922 42.583 26.4156 42.7223C26.439 42.8615 26.4261 43.0045 26.3782 43.1371L24.8781 45.8535C24.8261 46.01 24.7269 46.1461 24.5946 46.2427C24.4623 46.3392 24.3034 46.3914 24.1404 46.3919C23.9834 46.3917 23.8303 46.3424 23.7019 46.2509Z" fill="#2F2E41"/>
<path d="M5.2797 77.2595C5.20721 77.1542 5.16078 77.0328 5.14436 76.9056C5.12793 76.7783 5.14199 76.6489 5.18533 76.5283L9.28769 61.4223L9.59094 46.6207L23.4006 45.6613L23.4677 45.6567L27.6271 53.2929C28.9293 55.6803 29.7265 58.3162 29.9679 61.0329L31.3386 76.2477C31.3593 76.4546 31.2991 76.6614 31.1709 76.8237C31.0428 76.986 30.8568 77.091 30.6531 77.1159L26.4892 77.5171C26.2885 77.5418 26.0863 77.4862 25.9256 77.362C25.7649 77.2378 25.6585 77.055 25.629 76.8525L23.9382 61.3912L17.8544 50.9791L15.8122 61.9409L11.5814 77.0788C11.5261 77.2299 11.4267 77.3604 11.2964 77.4529C11.1662 77.5455 11.0112 77.5957 10.8521 77.597L5.91753 77.599C5.79189 77.5996 5.66803 77.569 5.55682 77.5098C5.44561 77.4506 5.35045 77.3646 5.2797 77.2595Z" fill="#2F2E41"/>
<path d="M111.02 126.941H6.95901C5.11401 126.939 3.34516 126.196 2.04055 124.875C0.735933 123.553 0.00208412 121.761 0 119.893V62.006C0.00208412 60.1371 0.735933 58.3454 2.04055 57.0239C3.34516 55.7025 5.11401 54.9591 6.95901 54.957H19.7178C21.4489 54.9555 23.1182 55.6091 24.3982 56.7897L38.2343 66.7972C39.1364 67.6322 40.3145 68.0947 41.5364 68.0937H111.667C112.589 68.0937 113.502 68.2794 114.353 68.6401C115.204 69.0009 115.976 69.5293 116.623 70.1948C117.271 70.8603 117.781 71.6496 118.125 72.5167C118.468 73.3837 118.638 74.3114 118.625 75.2456L117.979 119.996C117.944 121.845 117.197 123.607 115.897 124.905C114.596 126.203 112.846 126.934 111.02 126.941Z" fill="white"/>
<path d="M110.096 123.524H7.57485C6.6848 123.523 5.8315 123.164 5.20215 122.527C4.57279 121.889 4.21878 121.025 4.21777 120.123V61.2903C4.21878 60.3888 4.57279 59.5245 5.20215 58.887C5.83151 58.2495 6.68481 57.8909 7.57485 57.8899C8.36208 57.8908 9.11682 58.208 9.67348 58.7718C10.2301 59.3357 10.5433 60.1001 10.5441 60.8976V116.065C10.5451 116.91 10.8769 117.72 11.4667 118.317C12.0565 118.915 12.8562 119.251 13.6903 119.252H109.75C110.227 119.246 110.692 119.403 111.071 119.697C111.45 119.991 111.721 120.405 111.841 120.873C111.975 121.316 111.958 121.793 111.793 122.226C111.629 122.659 111.326 123.023 110.933 123.262C110.683 123.426 110.394 123.517 110.096 123.524Z" fill="#F2F2F2"/>
<path d="M59.7681 95.2699L59.4982 94.9965C59.4422 94.9435 59.4094 94.8701 59.4069 94.7925C59.4044 94.715 59.4324 94.6396 59.4848 94.5829C59.4891 94.5782 59.4935 94.5737 59.4982 94.5693L61.8663 92.1684C61.8923 92.1404 61.9234 92.1178 61.958 92.1019C61.9925 92.086 62.0298 92.0772 62.0677 92.076C62.1057 92.0747 62.1435 92.081 62.179 92.0945C62.2145 92.1081 62.247 92.1286 62.2747 92.1548C62.2793 92.1592 62.2838 92.1637 62.2881 92.1684L64.6563 94.5672C64.684 94.5943 64.7061 94.6266 64.7215 94.6624C64.7368 94.6981 64.7451 94.7366 64.7458 94.7756C64.7464 94.8146 64.7395 94.8533 64.7254 94.8896C64.7113 94.9259 64.6903 94.959 64.6635 94.987L64.6563 94.9944L64.3863 95.2678C64.3596 95.2959 64.3277 95.3183 64.2924 95.3339C64.2571 95.3494 64.2191 95.3578 64.1806 95.3585C64.1421 95.3591 64.1039 95.3521 64.0681 95.3378C64.0323 95.3236 63.9996 95.3023 63.9719 95.2752L63.9646 95.2678L62.5643 93.7726V97.3205C62.5646 97.3592 62.5574 97.3976 62.543 97.4335C62.5286 97.4694 62.5074 97.502 62.4806 97.5296C62.4538 97.5572 62.4219 97.5791 62.3867 97.5942C62.3515 97.6093 62.3137 97.6172 62.2755 97.6174L62.2733 97.6174H61.8832C61.8055 97.6174 61.7309 97.5862 61.6759 97.5305C61.621 97.4748 61.5901 97.3993 61.5901 97.3205V93.7769L60.1898 95.2721C60.1356 95.3285 60.0614 95.3607 59.9837 95.3617C59.9059 95.3627 59.831 95.3323 59.7753 95.2774L59.7681 95.2699Z" fill="#FFA600"/>
<path d="M62.0733 89.9875C63.0239 89.9875 63.953 90.273 64.7434 90.8079C65.5337 91.3428 66.1497 92.1031 66.5134 92.9926C66.8772 93.8821 66.9724 94.8609 66.7869 95.8052C66.6015 96.7495 66.1438 97.6169 65.4716 98.2977C64.7995 98.9785 63.9432 99.4422 63.0109 99.63C62.0787 99.8178 61.1124 99.7214 60.2342 99.353C59.356 98.9845 58.6054 98.3606 58.0774 97.56C57.5493 96.7595 57.2674 95.8183 57.2674 94.8555C57.2685 93.5648 57.7752 92.3272 58.6763 91.4145C59.5773 90.5019 60.7991 89.9886 62.0733 89.9875ZM62.0733 89.3467C60.9977 89.3467 59.9462 89.6698 59.0518 90.2751C58.1575 90.8804 57.4604 91.7408 57.0488 92.7474C56.6371 93.754 56.5294 94.8616 56.7393 95.9302C56.9491 96.9988 57.4671 97.9804 58.2277 98.7508C58.9883 99.5213 59.9573 100.046 61.0123 100.259C62.0673 100.471 63.1608 100.362 64.1546 99.945C65.1484 99.5281 65.9978 98.822 66.5954 97.9161C67.1929 97.0101 67.5119 95.9451 67.5119 94.8555C67.5119 93.3945 66.9389 91.9933 65.919 90.9602C64.8991 89.9271 63.5157 89.3467 62.0733 89.3467Z" fill="#3F3D56"/>
<path d="M111.02 126.941H6.95901C5.11401 126.939 3.34516 126.196 2.04055 124.875C0.735933 123.553 0.00208412 121.761 0 119.893V62.006C0.00208412 60.1371 0.735933 58.3454 2.04055 57.0239C3.34516 55.7025 5.11401 54.9591 6.95901 54.957H19.7178C21.4489 54.9555 23.1182 55.6091 24.3982 56.7897L38.2343 66.7972C39.1364 67.6322 40.3145 68.0947 41.5364 68.0937H111.667C112.589 68.0937 113.502 68.2794 114.353 68.6401C115.204 69.0009 115.976 69.5293 116.623 70.1948C117.271 70.8603 117.781 71.6496 118.125 72.5167C118.468 73.3837 118.638 74.3114 118.625 75.2456L117.979 119.996C117.944 121.845 117.197 123.607 115.897 124.905C114.596 126.203 112.846 126.934 111.02 126.941ZM6.95901 55.3842C5.22583 55.3862 3.5642 56.0845 2.33865 57.3259C1.11311 58.5673 0.423728 60.2504 0.421758 62.006V119.893C0.423728 121.648 1.11311 123.331 2.33865 124.573C3.5642 125.814 5.22583 126.512 6.95901 126.514H111.02C112.735 126.507 114.38 125.82 115.601 124.601C116.823 123.382 117.525 121.726 117.557 119.989L118.203 75.2394C118.216 74.3617 118.056 73.4903 117.733 72.6758C117.41 71.8612 116.931 71.1198 116.323 70.4947C115.714 69.8695 114.99 69.3731 114.19 69.0342C113.391 68.6954 112.533 68.5209 111.667 68.5209H41.5364C40.2137 68.522 38.9381 68.023 37.9595 67.1215L24.1234 57.1139C22.9199 55.9999 21.3481 55.3828 19.7178 55.3842H6.95901Z" fill="#3F3D56"/>
<path d="M119.839 128.068H117.254L116.446 117.968L119.84 117.968L119.839 128.068Z" fill="#FFB8B8"/>
<path d="M120.499 130.607L112.163 130.607V130.5C112.163 130.068 112.247 129.641 112.41 129.242C112.573 128.843 112.812 128.481 113.113 128.176C113.414 127.871 113.772 127.629 114.166 127.464C114.559 127.298 114.981 127.213 115.407 127.213L120.499 127.214L120.499 130.607Z" fill="#2F2E41"/>
<path d="M148.73 128.068H146.144L144.915 117.968L148.73 117.968L148.73 128.068Z" fill="#FFB8B8"/>
<path d="M149.389 130.607L141.053 130.607V130.5C141.053 130.068 141.137 129.641 141.3 129.242C141.463 128.843 141.702 128.481 142.004 128.176C142.305 127.871 142.663 127.629 143.056 127.464C143.45 127.298 143.872 127.213 144.298 127.213L149.39 127.214L149.389 130.607Z" fill="#2F2E41"/>
<path d="M140.229 96.8427C140.586 96.419 140.787 95.8833 140.798 95.3264C140.81 94.7696 140.63 94.226 140.291 93.7879C140.222 93.704 140.146 93.6261 140.065 93.5548L142.012 86.2727L138.767 87.3633L137.415 94.1113C137.191 94.5274 137.091 95.0009 137.13 95.4734C137.168 95.946 137.341 96.3969 137.63 96.7706C137.78 96.9723 137.974 97.1371 138.196 97.2528C138.418 97.3686 138.663 97.4323 138.912 97.4392C139.162 97.4461 139.41 97.3961 139.638 97.2929C139.866 97.1896 140.068 97.0358 140.229 96.8427Z" fill="#FFB8B8"/>
<path d="M140.104 92.3631C140.063 92.3631 140.023 92.36 139.982 92.3539L138.291 92.0956C138.16 92.0727 138.035 92.0209 137.925 91.9439C137.815 91.8668 137.723 91.7664 137.656 91.6497C137.509 91.4012 137.457 91.1073 137.508 90.8225L139.618 78.886L138.187 71.2173C137.911 69.7415 138.622 68.2509 139.842 67.7501C140.204 67.6002 140.598 67.5478 140.986 67.5982C141.374 67.6485 141.742 67.7998 142.055 68.0372C142.393 68.2962 142.673 68.6241 142.877 68.9998C143.081 69.3755 143.205 69.7905 143.241 70.2178L144.253 79.9958L144.241 80.0384L140.982 91.626C140.935 91.829 140.824 92.0109 140.665 92.144C140.507 92.277 140.31 92.354 140.104 92.3631Z" fill="#FFA600"/>
<path d="M139.605 63.524C142.465 63.524 144.784 61.1752 144.784 58.2777C144.784 55.3802 142.465 53.0314 139.605 53.0314C136.744 53.0314 134.425 55.3802 134.425 58.2777C134.425 61.1752 136.744 63.524 139.605 63.524Z" fill="#FFB8B8"/>
<path d="M136.953 82.6649C136.824 82.6649 136.696 82.6408 136.576 82.5938L128.389 79.4043C128.168 79.3187 127.981 79.1596 127.86 78.953C127.739 78.7464 127.691 78.5044 127.722 78.2663L128.051 75.7687C127.856 74.8833 127.874 73.9633 128.104 73.0864C128.333 72.2095 128.767 71.4012 129.369 70.7297L129.569 70.5076L131.991 66.0339C132.155 65.7308 132.376 65.4636 132.643 65.2477C132.909 65.0318 133.215 64.8715 133.543 64.776C133.871 64.6806 134.215 64.6518 134.554 64.6915C134.893 64.7311 135.221 64.8383 135.519 65.007L139.796 67.4279C140.359 67.7461 140.784 68.2662 140.987 68.8858C141.563 70.64 141.52 72.542 140.867 74.2679L137.938 81.9803C137.861 82.1814 137.725 82.3542 137.55 82.4763C137.374 82.5984 137.166 82.6641 136.953 82.6649Z" fill="#FFA600"/>
<path d="M115.499 125.589L115.488 125.586C115.348 125.559 115.215 125.504 115.097 125.423C114.979 125.343 114.879 125.239 114.802 125.118C114.724 124.997 114.672 124.861 114.648 124.719C114.624 124.578 114.628 124.432 114.661 124.292L120.934 96.515C121.961 92.1117 123.38 87.8116 125.173 83.6676L127.842 77.5038L137.801 82.1091L139.223 84.7434C140.332 87.6772 140.902 90.7917 140.905 93.9331L151.024 123.973C151.074 124.119 151.091 124.275 151.075 124.429C151.059 124.583 151.01 124.732 150.932 124.865C150.853 124.998 150.747 125.112 150.621 125.2C150.494 125.287 150.351 125.345 150.2 125.371L144.66 125.308C144.608 125.317 144.555 125.322 144.502 125.321C144.292 125.321 144.087 125.258 143.913 125.138C143.739 125.019 143.605 124.849 143.527 124.651L131.96 94.28C131.943 94.2397 131.915 94.2054 131.879 94.1818C131.842 94.1581 131.8 94.1462 131.757 94.1477C131.715 94.1484 131.674 94.1622 131.64 94.1873C131.606 94.2124 131.58 94.2476 131.566 94.2879L120.591 124.811C120.507 125.048 120.342 125.247 120.126 125.373C119.91 125.498 119.657 125.542 119.412 125.496L115.499 125.589Z" fill="#2F2E41"/>
<path d="M123.072 91.4299C123.364 91.3246 123.63 91.1558 123.85 90.9353C124.071 90.7148 124.241 90.4479 124.349 90.1535C124.457 89.8591 124.5 89.5444 124.475 89.2314C124.45 88.9184 124.357 88.6148 124.203 88.3421L129.164 82.596L125.284 82.0601L121.168 87.5988C120.733 87.8905 120.418 88.3338 120.284 88.8447C120.15 89.3557 120.205 89.8987 120.44 90.3709C120.675 90.8431 121.072 91.2118 121.557 91.4069C122.042 91.6021 122.581 91.6103 123.072 91.4299Z" fill="#FFB8B8"/>
<path d="M125.41 87.382C125.238 87.3819 125.068 87.3389 124.915 87.2569L123.17 86.3138C123.041 86.2446 122.929 86.1493 122.839 86.034C122.749 85.9187 122.683 85.7857 122.646 85.6435C122.609 85.5014 122.602 85.353 122.624 85.2076C122.646 85.0623 122.698 84.9232 122.775 84.7991L129.223 74.5082L130.341 66.7424C130.399 66.341 130.536 65.9557 130.745 65.6098C130.955 65.2638 131.231 64.9645 131.557 64.7299C131.884 64.4952 132.254 64.3302 132.646 64.2447C133.037 64.1592 133.442 64.1551 133.835 64.2326C134.228 64.3101 134.601 64.4675 134.933 64.6955C135.264 64.9234 135.546 65.2171 135.762 65.5587C135.978 65.9003 136.123 66.2827 136.189 66.6828C136.255 67.0829 136.24 67.4924 136.145 67.8864L133.836 77.4582L126.231 86.9859C126.132 87.11 126.007 87.21 125.865 87.2786C125.723 87.3472 125.568 87.3825 125.41 87.382Z" fill="#FFA600"/>
<path d="M134.943 53.9491C135.542 51.9591 139.003 51.0712 141.88 51.8969C144.757 52.7226 146.824 54.8874 147.305 57.0039C148.371 61.6908 142.813 65.4948 143.82 70.1823C144.487 73.2835 148.341 76.2158 152.682 76.9239C147.898 77.9377 142.059 77.0466 137.623 74.6257C134.862 73.119 132.545 70.8452 132.58 68.5518C132.602 67.1632 133.474 65.9353 134.54 64.8744C135.607 63.8136 136.883 62.8706 137.862 61.7633C138.841 60.656 139.519 59.3301 139.233 57.9244C138.948 56.5188 137.497 55.0529 135.544 54.6439L134.943 53.9491Z" fill="#2F2E41"/>
<path d="M163.789 131H83.4443C83.3883 131 83.3347 130.977 83.2952 130.937C83.2556 130.897 83.2334 130.843 83.2334 130.786C83.2334 130.73 83.2556 130.675 83.2952 130.635C83.3347 130.595 83.3883 130.573 83.4443 130.573H163.789C163.845 130.573 163.899 130.595 163.938 130.635C163.978 130.675 164 130.73 164 130.786C164 130.843 163.978 130.897 163.938 130.937C163.899 130.977 163.845 131 163.789 131Z" fill="#CCCCCC"/>
</g>
<defs>
<clipPath id="clip0_457_305">
<rect width="164" height="131" fill="white"/>
</clipPath>
</defs>
</svg>
