<svg width="33" height="28" viewBox="0 0 33 28" fill="none" xmlns="http://www.w3.org/2000/svg">
<path d="M7.2353 5.64961H4.63636C3.31818 5.64961 2 6.3087 2 8.28598V22.786C2 24.7633 2.65909 25.8039 5.29545 26.0814C15.3136 27.136 24.4091 26.5208 27.7045 26.0814C31 25.4223 31 24.1042 31 22.786V7.62689C31 6.04507 29.6818 5.64961 29.0227 5.64961H25.7647C24.8967 5.64961 24.0643 5.30481 23.4505 4.69106L21.4131 2.65363C20.7994 2.03987 19.9669 1.69507 19.0989 1.69507H13.9011C13.0331 1.69507 12.2007 2.03987 11.5869 2.65363L9.54947 4.69105C8.93571 5.30481 8.10328 5.64961 7.2353 5.64961Z" stroke="#00051D" stroke-width="2.18182"/>
</svg>
