<svg width="30" height="30" viewBox="0 0 30 30" fill="none" xmlns="http://www.w3.org/2000/svg">
<path d="M8.32908 27.5009L0.833252 29.1666L2.49898 21.6708C1.43596 19.6829 0.833252 17.4119 0.833252 15C0.833252 7.17594 7.17588 0.833313 14.9999 0.833313C22.8239 0.833313 29.1666 7.17594 29.1666 15C29.1666 22.8239 22.8239 29.1666 14.9999 29.1666C12.588 29.1666 10.317 28.564 8.32908 27.5009ZM8.73932 24.5072L9.66515 25.0024C11.2918 25.8722 13.1094 26.3333 14.9999 26.3333C21.2592 26.3333 26.3333 21.2592 26.3333 15C26.3333 8.74075 21.2592 3.66665 14.9999 3.66665C8.74069 3.66665 3.66659 8.74075 3.66659 15C3.66659 16.8905 4.1277 18.7081 4.99753 20.3347L5.49261 21.2605L4.56498 25.4349L8.73932 24.5072Z" fill="#00051D"/>
</svg>
