<svg width="19" height="24" viewBox="0 0 19 24" fill="none" xmlns="http://www.w3.org/2000/svg">
<path d="M0.5 23.75C0.5 18.7794 4.52943 14.75 9.5 14.75C14.4706 14.75 18.5 18.7794 18.5 23.75H16.25C16.25 20.0221 13.2279 17 9.5 17C5.77208 17 2.75 20.0221 2.75 23.75H0.5ZM9.5 13.625C5.77063 13.625 2.75 10.6044 2.75 6.875C2.75 3.14562 5.77063 0.125 9.5 0.125C13.2294 0.125 16.25 3.14562 16.25 6.875C16.25 10.6044 13.2294 13.625 9.5 13.625ZM9.5 11.375C11.9862 11.375 14 9.36125 14 6.875C14 4.38875 11.9862 2.375 9.5 2.375C7.01375 2.375 5 4.38875 5 6.875C5 9.36125 7.01375 11.375 9.5 11.375Z" fill="#00051D"/>
</svg>
