<svg width="106" height="140" viewBox="0 0 106 140" fill="none" xmlns="http://www.w3.org/2000/svg">
<g clip-path="url(#clip0_471_1509)">
<path d="M68.7228 32.9183H67.965V12.0674C67.9649 8.86689 66.6999 5.79751 64.4482 3.53444C62.1966 1.27137 59.1427 -3.36473e-10 55.9583 0H12.0066C8.82229 -3.3648e-10 5.76839 1.27137 3.51672 3.53444C1.26505 5.79751 4.61743e-05 8.86689 0 12.0674V126.456C4.61743e-05 129.656 1.26505 132.725 3.51672 134.988C5.76839 137.252 8.82229 138.523 12.0066 138.523H55.9585C59.1429 138.523 62.1968 137.252 64.4485 134.988C66.7001 132.725 67.9651 129.656 67.9651 126.455V47.7601H68.7228V32.9183Z" fill="#090814"/>
<path d="M56.4442 3.13977H50.7072C50.9711 3.7899 51.0718 4.49527 51.0006 5.19375C50.9293 5.89222 50.6882 6.56237 50.2986 7.14514C49.9089 7.72791 49.3826 8.20542 48.7661 8.5356C48.1496 8.86578 47.4617 9.0385 46.7631 9.03854H21.5824C20.8837 9.03853 20.1959 8.86583 19.5793 8.53566C18.9628 8.20549 18.4365 7.72798 18.0468 7.14521C17.6571 6.56244 17.416 5.89228 17.3447 5.19379C17.2735 4.4953 17.3742 3.78991 17.6381 3.13977H12.2797C9.90174 3.13977 7.62113 4.08922 5.93963 5.77926C4.25813 7.46929 3.31348 9.76147 3.31348 12.1515V126.373C3.31348 128.763 4.25813 131.055 5.93963 132.745C7.62113 134.435 9.90174 135.385 12.2797 135.385H56.4425C58.8205 135.385 61.1011 134.435 62.7826 132.745C64.4641 131.055 65.4087 128.763 65.4087 126.373V12.1519C65.4087 9.76209 64.4643 7.47015 62.7831 5.78016C61.102 4.09017 58.8218 3.14054 56.444 3.14012L56.4442 3.13977Z" fill="white"/>
<path d="M34.3616 87.1163C46.9839 87.1163 57.2163 76.8319 57.2163 64.1455C57.2163 51.4592 46.9839 41.1748 34.3616 41.1748C21.7393 41.1748 11.5068 51.4592 11.5068 64.1455C11.5068 76.8319 21.7393 87.1163 34.3616 87.1163Z" fill="#E6E6E6"/>
<path d="M55.0831 20.9934H13.5521C12.3983 20.9934 11.4629 21.9335 11.4629 23.0932V26.7693C11.4629 27.929 12.3983 28.8692 13.5521 28.8692H55.0831C56.237 28.8692 57.1724 27.929 57.1724 26.7693V23.0932C57.1724 21.9335 56.237 20.9934 55.0831 20.9934Z" fill="#E6E6E6"/>
<path d="M16.0338 111.4C18.5582 111.4 20.6046 109.343 20.6046 106.806C20.6046 104.268 18.5582 102.211 16.0338 102.211C13.5093 102.211 11.4629 104.268 11.4629 106.806C11.4629 109.343 13.5093 111.4 16.0338 111.4Z" fill="#E6E6E6"/>
<path d="M52.6012 111.4C55.1256 111.4 57.172 109.343 57.172 106.806C57.172 104.268 55.1256 102.211 52.6012 102.211C50.0767 102.211 48.0303 104.268 48.0303 106.806C48.0303 109.343 50.0767 111.4 52.6012 111.4Z" fill="#E6E6E6"/>
<path d="M28.2769 111.4C30.8014 111.4 32.8478 109.343 32.8478 106.806C32.8478 104.268 30.8014 102.211 28.2769 102.211C25.7525 102.211 23.7061 104.268 23.7061 106.806C23.7061 109.343 25.7525 111.4 28.2769 111.4Z" fill="#E6E6E6"/>
<path d="M40.358 111.4C42.8824 111.4 44.9289 109.343 44.9289 106.806C44.9289 104.268 42.8824 102.211 40.358 102.211C37.8336 102.211 35.7871 104.268 35.7871 106.806C35.7871 109.343 37.8336 111.4 40.358 111.4Z" fill="#E6E6E6"/>
<path d="M43.2123 73.0828V69.8396C43.2211 68.4398 42.9185 67.0557 42.3265 65.7887C41.7344 64.5216 40.868 63.4037 39.7906 62.5166C38.1517 61.1885 35.7779 60.1952 32.3772 60.4168L33.6727 55.2085L22.4844 62.9024L33.4371 70.5964L32.3184 65.684C32.3184 65.684 39.1493 64.3827 43.2123 73.0828Z" fill="#FFA600"/>
<path d="M16.9049 104.837C17.1934 104.837 17.47 104.952 17.674 105.157C17.8779 105.363 17.9925 105.641 17.9925 105.931V107.68C17.9924 107.97 17.8778 108.248 17.6739 108.453C17.4699 108.659 17.1933 108.774 16.9049 108.774H15.1639C14.8753 108.774 14.5985 108.659 14.3943 108.454C14.1902 108.249 14.0754 107.971 14.0752 107.681V105.931C14.0751 105.787 14.1033 105.645 14.1579 105.512C14.2126 105.38 14.2928 105.259 14.3938 105.157C14.4949 105.056 14.6149 104.975 14.7469 104.92C14.879 104.865 15.0206 104.837 15.1635 104.837H16.9049ZM16.0344 105.931C15.811 105.931 15.5961 106.017 15.4342 106.171C15.2723 106.326 15.1758 106.537 15.1646 106.762L15.1635 106.805C15.1635 106.978 15.2146 107.148 15.3102 107.291C15.4059 107.435 15.5418 107.547 15.7009 107.614C15.86 107.68 16.035 107.697 16.2038 107.663C16.3727 107.63 16.5278 107.546 16.6496 107.424C16.7713 107.302 16.8542 107.146 16.8878 106.976C16.9214 106.806 16.9042 106.63 16.8383 106.471C16.7724 106.311 16.6608 106.174 16.5176 106.078C16.3745 105.982 16.2062 105.93 16.034 105.93M17.0133 105.602C16.9601 105.602 16.9088 105.622 16.869 105.657C16.8292 105.693 16.8037 105.742 16.7973 105.795L16.7957 105.823C16.7955 105.879 16.8166 105.933 16.8547 105.973C16.8928 106.014 16.945 106.039 17.0006 106.042C17.0562 106.045 17.1109 106.027 17.1535 105.991C17.1961 105.955 17.2233 105.904 17.2296 105.848L17.2311 105.82C17.2311 105.762 17.2082 105.707 17.1674 105.666C17.1266 105.625 17.0712 105.602 17.0135 105.602" fill="#090814"/>
<path d="M28.2774 108.775C29.3593 108.775 30.2364 107.893 30.2364 106.806C30.2364 105.718 29.3593 104.837 28.2774 104.837C27.1954 104.837 26.3184 105.718 26.3184 106.806C26.3184 107.893 27.1954 108.775 28.2774 108.775Z" fill="black"/>
<path d="M27.7503 105.848H27.4577L28.8054 107.787H29.0982L27.7503 105.848ZM27.1982 105.705H27.8424L28.3995 106.521L29.0982 105.705H29.2889L28.4843 106.644L29.3592 107.924H28.715L28.1266 107.062L27.3889 107.924H27.1982L28.0421 106.939L27.1982 105.705Z" fill="white"/>
<path d="M42.0029 104.837H38.7332C38.6912 104.835 38.6492 104.841 38.6096 104.856C38.57 104.87 38.5336 104.892 38.5024 104.921C38.4713 104.949 38.4461 104.983 38.4283 105.022C38.4104 105.06 38.4003 105.101 38.3984 105.144V108.437C38.4007 108.526 38.4367 108.61 38.499 108.673C38.5612 108.735 38.6451 108.772 38.7332 108.774H42.002C42.0878 108.771 42.1688 108.733 42.2274 108.67C42.2861 108.607 42.3177 108.523 42.3154 108.437V105.144C42.3161 105.103 42.3084 105.062 42.2928 105.024C42.2771 104.986 42.2539 104.951 42.2246 104.922C42.1952 104.894 42.1603 104.871 42.1221 104.857C42.0838 104.842 42.0429 104.835 42.002 104.837H42.0029ZM39.6131 108.119H39.0518V106.365H39.6131V108.119ZM39.352 106.099H39.348C39.2672 106.098 39.19 106.066 39.1331 106.008C39.0763 105.95 39.0445 105.872 39.0448 105.791C39.0451 105.71 39.0773 105.632 39.1345 105.575C39.1917 105.518 39.2692 105.485 39.35 105.485C39.4308 105.485 39.5082 105.518 39.5655 105.575C39.6227 105.632 39.6549 105.71 39.6552 105.791C39.6555 105.872 39.6237 105.95 39.5669 106.008C39.51 106.066 39.4328 106.098 39.352 106.099ZM41.6646 108.119H41.1033V107.16C41.1033 106.93 41.0216 106.773 40.8185 106.773C40.7549 106.774 40.6931 106.794 40.6416 106.831C40.59 106.869 40.5513 106.921 40.5307 106.982C40.5157 107.026 40.5091 107.073 40.5112 107.12V108.119H39.9499V106.365H40.5112V106.609C40.5623 106.521 40.6362 106.447 40.7253 106.397C40.8143 106.347 40.9152 106.322 41.0173 106.324C41.3857 106.324 41.6644 106.568 41.6646 107.094V108.119Z" fill="#090814"/>
<path d="M54.5599 105.927V107.79C54.5599 107.941 54.5026 108.086 54.3997 108.195C54.2969 108.305 54.1562 108.371 54.0066 108.38L53.9718 108.381H51.2303C51.0804 108.381 50.9362 108.323 50.8271 108.22C50.7181 108.117 50.6524 107.975 50.6436 107.825L50.6426 107.79V105.927L52.4928 107.166L52.5156 107.179C52.5424 107.192 52.5718 107.199 52.6016 107.199C52.6314 107.199 52.6608 107.192 52.6876 107.179L52.7104 107.166L54.5599 105.927Z" fill="black"/>
<path d="M53.9727 105.23C54.073 105.23 54.1718 105.256 54.2594 105.305C54.347 105.355 54.4207 105.426 54.4732 105.511L52.602 106.766L50.7295 105.511C50.7786 105.431 50.846 105.364 50.9263 105.315C51.0065 105.267 51.0972 105.238 51.1907 105.232L51.23 105.23H53.9727Z" fill="black"/>
<path d="M98.5447 63.4021H93.5907L93.0107 59.5616L96.7346 59.0643L98.5447 63.4021Z" fill="#9F616A"/>
<path d="M96.6798 59.1598L93.1099 59.6366L93.6653 63.3145H98.4135L96.6798 59.1598ZM96.7889 58.9688L98.6754 63.4895H93.5157L92.9111 59.4866L96.7889 58.9688Z" fill="#707070"/>
<path d="M81.168 97.2166C81.3736 97.0922 81.5496 96.924 81.6836 96.7239C81.8175 96.5237 81.9062 96.2965 81.9433 96.0582C81.9804 95.8199 81.9651 95.5763 81.8985 95.3446C81.8318 95.1129 81.7154 94.8987 81.5575 94.7171L84.4476 89.625L81.4224 89.8215L79.1416 94.6275C78.8557 94.9144 78.6844 95.2967 78.6602 95.7021C78.636 96.1075 78.7606 96.5077 79.0103 96.8269C79.2601 97.1461 79.6176 97.3621 80.0153 97.4341C80.4129 97.506 80.823 97.4289 81.1678 97.2173L81.168 97.2166Z" fill="#9F616A"/>
<path d="M103.636 132.619H100.965L100.468 124.176H103.422L103.636 132.619Z" fill="#9F616A"/>
<path d="M89.5156 132.573L86.7559 132.407V124.176H89.7097L89.5156 132.573Z" fill="#9F616A"/>
<path d="M84.5626 89.8431C84.5626 89.8431 84.0121 97.7224 85.0964 101.69C86.1807 105.657 86.3741 129.655 86.3741 129.655H90.0089L93.158 96.9906L100.42 129.771L103.882 129.532L101.984 90.9044L84.5626 89.8431Z" fill="#090814"/>
<path d="M100.481 63.2828L97.7031 61.2451L93.0478 62.2641L91.7877 65.2738L89.6163 66.3559C88.9022 66.7117 88.2849 67.2364 87.8172 67.885C87.3495 68.5336 87.0455 69.2865 86.9313 70.0793L83.8291 91.6092L101.983 90.9038L104.181 65.547C104.204 65.2821 104.174 65.0153 104.092 64.7623C104.011 64.5094 103.88 64.2754 103.707 64.0743C103.534 63.8732 103.322 63.709 103.085 63.5914C102.848 63.4739 102.59 63.4053 102.326 63.3899L100.481 63.2828Z" fill="#E4E4E4"/>
<path d="M88.4671 68.0377L86.7904 70.3096L79.4873 92.6971L82.9107 94.0747L88.3921 83.6426L88.4671 68.0377Z" fill="#E4E4E4"/>
<path d="M94.4705 60.4209C97.5393 60.4209 100.027 57.9206 100.027 54.8363C100.027 51.7519 97.5393 49.2516 94.4705 49.2516C91.4018 49.2516 88.9141 51.7519 88.9141 54.8363C88.9141 57.9206 91.4018 60.4209 94.4705 60.4209Z" fill="#090814"/>
<path d="M94.5451 60.6742C96.7845 60.6742 98.5999 58.8495 98.5999 56.5987C98.5999 54.3479 96.7845 52.5233 94.5451 52.5233C92.3056 52.5233 90.4902 54.3479 90.4902 56.5987C90.4902 58.8495 92.3056 60.6742 94.5451 60.6742Z" fill="#9F616A"/>
<path d="M97.6238 56.07C95.0418 55.134 94.1682 54.559 91.3164 56.07L90.2646 51.8438H98.6738L97.6238 56.07Z" fill="#090814"/>
<path d="M94.0199 52.4477C95.7616 52.4477 97.1736 51.0285 97.1736 49.278C97.1736 47.5274 95.7616 46.1083 94.0199 46.1083C92.2782 46.1083 90.8662 47.5274 90.8662 49.278C90.8662 51.0285 92.2782 52.4477 94.0199 52.4477Z" fill="#090814"/>
<path d="M90.2652 48.5233C90.2656 47.7092 90.5778 46.9266 91.1371 46.3378C91.6964 45.749 92.4597 45.3992 93.2688 45.3611C93.2186 45.3586 93.1694 45.3534 93.1185 45.3534C92.2821 45.3534 91.48 45.6873 90.8885 46.2818C90.2971 46.8762 89.9648 47.6824 89.9648 48.5231C89.9648 49.3637 90.2971 50.17 90.8885 50.7644C91.48 51.3588 92.2821 51.6928 93.1185 51.6928C93.1692 51.6928 93.2186 51.6875 93.2688 51.6851C92.4598 51.6469 91.6965 51.2972 91.1372 50.7085C90.5779 50.1198 90.2657 49.3372 90.2652 48.5233Z" fill="#090814"/>
<path opacity="0.1" d="M101.837 69.327L100.705 80.6623L96.71 88.5765L101.837 69.327Z" fill="black"/>
<path d="M86.8089 130.788L85.6631 134.804L84.7692 136.99C84.7692 136.99 83.6966 138.854 86.8367 139.216C89.9768 139.578 89.1225 136.887 89.1225 136.887L89.3871 134.567L89.6408 131.218L86.8089 130.788Z" fill="#090814"/>
<path d="M103.689 131.171L104.208 135.5L104.921 137.883C104.921 137.883 105.853 139.945 102.528 140C99.2027 140.054 100.372 137.324 100.372 137.324L101.054 134.964L100.765 131.41L103.689 131.171Z" fill="#090814"/>
<path d="M82.0706 130.185C94.6929 130.185 104.925 119.9 104.925 107.214C104.925 94.5276 94.6929 84.2433 82.0706 84.2433C69.4482 84.2433 59.2158 94.5276 59.2158 107.214C59.2158 119.9 69.4482 130.185 82.0706 130.185Z" fill="#FFA600"/>
<path opacity="0.2" d="M80.9888 115.344C79.9418 116.396 78.5218 116.987 77.0411 116.987C75.5604 116.987 74.1404 116.396 73.0934 115.344C72.1937 114.439 71.6284 113.253 71.4912 111.981C71.354 110.71 71.6531 109.429 72.339 108.351L71.1107 109.611C70.0638 110.664 69.4756 112.091 69.4756 113.579C69.4756 115.067 70.0638 116.494 71.1107 117.547C72.1577 118.599 73.5778 119.19 75.0584 119.19C76.5391 119.19 77.9591 118.599 79.0061 117.547L81.728 114.706L81.7694 114.53L80.9888 115.344Z" fill="black"/>
<path opacity="0.2" d="M83.5819 97.7947C84.8057 96.957 86.3105 96.6421 87.7653 96.9195C89.22 97.1969 90.5055 98.0437 91.3391 99.2737C92.0553 100.331 92.3906 101.603 92.2896 102.878C92.1886 104.153 91.6573 105.355 90.7837 106.285L92.224 105.277C93.4478 104.44 94.2904 103.148 94.5663 101.686C94.8423 100.223 94.529 98.711 93.6955 97.481C92.862 96.251 91.5765 95.4041 90.1217 95.1268C88.667 94.8494 87.1622 95.1642 85.9384 96.002L82.7375 98.2829L82.6641 98.4486L83.5819 97.7947Z" fill="black"/>
<path d="M75.0591 119.892C73.858 119.892 72.6839 119.534 71.6852 118.863C70.6866 118.192 69.9082 117.239 69.4486 116.124C68.989 115.009 68.8687 113.781 69.103 112.597C69.3373 111.413 69.9157 110.326 70.765 109.472L75.9184 104.188C76.4822 103.62 77.1516 103.17 77.8886 102.863C78.6255 102.555 79.4155 102.397 80.2134 102.397C81.0113 102.396 81.8014 102.554 82.5386 102.861C83.2758 103.167 83.9457 103.617 84.5098 104.184C84.6002 104.277 84.6506 104.402 84.65 104.531C84.6494 104.661 84.5978 104.785 84.5065 104.877C84.4153 104.969 84.2917 105.021 84.1626 105.021C84.0335 105.022 83.9094 104.971 83.8173 104.88C82.8621 103.92 81.5667 103.381 80.2159 103.381C78.8651 103.381 77.5696 103.92 76.6145 104.88C75.8575 107.562 74.222 109.403 71.4611 110.165C70.5054 111.125 69.9682 112.426 69.9675 113.784C69.9669 115.142 70.5029 116.444 71.4576 117.404C72.4123 118.365 73.7075 118.905 75.0583 118.906C76.4091 118.906 77.7049 118.368 78.6605 117.408C78.5489 116.308 78.8695 115.273 81.3765 114.573C81.4206 114.525 81.4739 114.485 81.5334 114.458C81.5928 114.43 81.6571 114.415 81.7225 114.413C81.7879 114.411 81.853 114.422 81.9141 114.445C81.9752 114.469 82.0309 114.505 82.0781 114.55C82.1252 114.596 82.1628 114.65 82.1886 114.711C82.2144 114.771 82.2278 114.836 82.2282 114.902C82.2286 114.968 82.2158 115.033 82.1907 115.094C82.1656 115.154 82.1286 115.21 82.082 115.256L79.3601 118.096C78.7971 118.666 78.1271 119.119 77.3889 119.427C76.6507 119.735 75.859 119.892 75.0598 119.89L75.0591 119.892Z" fill="white"/>
<path d="M83.4257 112.416C82.6279 112.418 81.8376 112.261 81.1005 111.954C80.3634 111.647 79.6943 111.197 79.1317 110.628C79.0399 110.536 78.9883 110.41 78.9883 110.28C78.9883 110.149 79.0399 110.024 79.1318 109.932C79.2236 109.84 79.3482 109.788 79.4781 109.788C79.608 109.788 79.7326 109.84 79.8244 109.932C80.2974 110.407 80.8588 110.784 81.4768 111.042C82.0947 111.299 82.757 111.431 83.4258 111.431C84.0947 111.431 84.757 111.299 85.3749 111.042C85.9928 110.784 86.5543 110.407 87.0272 109.932C87.6799 105.98 90.3409 105.423 92.6539 104.277C93.1268 103.802 93.5019 103.237 93.7579 102.616C94.0138 101.995 94.1455 101.329 94.1455 100.657C94.1455 99.9849 94.0137 99.3192 93.7577 98.6982C93.5017 98.0771 93.1266 97.5128 92.6536 97.0375C92.1806 96.5621 91.6191 96.1851 91.0012 95.9278C90.3833 95.6706 89.721 95.5382 89.0521 95.5383C88.3833 95.5383 87.721 95.6707 87.103 95.928C86.4851 96.1853 85.9237 96.5624 85.4507 97.0377C84.8066 98.9034 84.1756 100.791 82.2593 100.245C82.1671 100.336 82.043 100.387 81.9139 100.386C81.7849 100.386 81.6613 100.334 81.57 100.242C81.4787 100.15 81.4272 100.026 81.4266 99.8964C81.4259 99.7666 81.4763 99.6419 81.5667 99.5493L84.7581 96.3416C85.3209 95.7697 85.9906 95.3152 86.7287 95.0042C87.4668 94.6933 88.2588 94.5321 89.0591 94.5298C89.8595 94.5276 90.6523 94.6843 91.3922 94.9911C92.132 95.2979 92.8042 95.7487 93.3701 96.3175C93.9361 96.8862 94.3845 97.5619 94.6898 98.3055C94.995 99.049 95.151 99.8459 95.1488 100.65C95.1465 101.455 94.9861 102.251 94.6767 102.993C94.3674 103.734 93.9152 104.408 93.3461 104.973L87.7196 110.628C87.1571 111.197 86.4879 111.647 85.7509 111.954C85.0138 112.261 84.2235 112.418 83.4257 112.416Z" fill="white"/>
<path d="M101.927 95.5232C100.967 93.8848 99.8124 92.3701 98.4876 91.0128C98.1917 90.7109 97.887 90.4155 97.5752 90.1284C97.4021 89.9693 97.227 89.8134 97.0495 89.6608C96.7116 89.3688 96.3639 89.0865 96.0096 88.8142C92.0078 85.7377 87.1081 84.0734 82.0698 84.0791C69.3788 84.0791 59.0518 94.457 59.0518 107.214C59.0512 108.621 59.1784 110.024 59.432 111.408C59.4324 111.415 59.4335 111.423 59.4353 111.431C59.5513 112.066 59.6949 112.692 59.8613 113.308C61.0409 117.651 63.4556 121.553 66.8094 124.537C70.1632 127.521 74.3105 129.457 78.7427 130.107C83.1749 130.756 87.6994 130.092 91.7616 128.196C95.8238 126.299 99.2472 123.253 101.612 119.429C101.93 118.914 102.23 118.386 102.51 117.844C104.298 114.378 105.182 110.512 105.08 106.608C104.978 102.705 103.893 98.8911 101.927 95.5232ZM82.0698 130.021C79.0896 130.022 76.1385 129.433 73.3849 128.287C70.6314 127.141 68.1295 125.461 66.0222 123.343C63.9149 121.225 62.2435 118.711 61.1034 115.943C59.9634 113.176 59.3772 110.209 59.3782 107.214C59.3782 94.6376 69.5583 84.4076 82.0698 84.4076C85.0975 84.4093 88.0943 85.0202 90.8834 86.2043C93.6725 87.3884 96.1976 89.1217 98.3097 91.302C98.8606 91.8672 99.3804 92.462 99.8671 93.0839C100.349 93.6925 100.798 94.3261 101.214 94.9823C102.946 97.7167 104.077 100.791 104.533 104C104.989 107.208 104.759 110.478 103.859 113.59C103.658 114.286 103.423 114.967 103.158 115.635C102.893 116.302 102.596 116.96 102.27 117.597C100.361 121.331 97.4664 124.465 93.9036 126.656C90.3407 128.848 86.2468 130.011 82.0698 130.021Z" fill="#3F3D56"/>
<path d="M74.1294 107.79C74.3999 107.79 74.6191 107.57 74.6191 107.298C74.6191 107.026 74.3999 106.806 74.1294 106.806C73.8589 106.806 73.6396 107.026 73.6396 107.298C73.6396 107.57 73.8589 107.79 74.1294 107.79Z" fill="#FFA600"/>
<path d="M89.6382 107.462C89.9087 107.462 90.1279 107.242 90.1279 106.97C90.1279 106.698 89.9087 106.477 89.6382 106.477C89.3677 106.477 89.1484 106.698 89.1484 106.97C89.1484 107.242 89.3677 107.462 89.6382 107.462Z" fill="#FFA600"/>
<path d="M95.2921 92.594C95.2753 92.3534 95.3112 92.112 95.3973 91.8869C95.4834 91.6617 95.6175 91.4582 95.7903 91.2908C95.963 91.1234 96.1702 90.9961 96.3972 90.9179C96.6242 90.8396 96.8655 90.8124 97.1042 90.838L99.5917 85.5345L101.169 88.1364L98.5652 92.7735C98.4958 93.1736 98.2828 93.5342 97.9665 93.787C97.6503 94.0398 97.2527 94.1671 96.8492 94.145C96.4458 94.1228 96.0644 93.9527 95.7774 93.6668C95.4904 93.3809 95.3177 92.9991 95.2921 92.5938V92.594Z" fill="#9F616A"/>
<path d="M102.056 64.8521L103.08 63.5093C103.08 63.5093 105.576 62.9983 106 66.4441L105.732 81.7633L100.263 90.4161L96.7109 89.5045L101.355 79.2254L102.056 64.8521Z" fill="#E4E4E4"/>
</g>
<defs>
<clipPath id="clip0_471_1509">
<rect width="106" height="140" fill="white"/>
</clipPath>
</defs>
</svg>
